<svg width="1200" height="300" viewBox="0 0 1200 300" fill="none" xmlns="http://www.w3.org/2000/svg">
<path fill-rule="evenodd" clip-rule="evenodd" d="M97.9849 86.5173H194.03L181.715 129.068H161.501L161.459 129.016H149.144L162.57 133.744C170.132 163.029 154.879 196.581 126.301 212.85C111.462 221.298 95.3593 224.004 80.395 221.646C109.945 214.462 132.376 189.449 135.28 158.842C136.711 149.735 135.007 140.056 129.995 131.496C118.773 112.331 95.8372 109.168 75.8116 120.568C55.7859 131.969 48.581 156.045 59.8027 175.21C71.0245 194.375 95.8076 198.241 115.833 186.841C117.017 186.167 118.149 185.447 119.23 184.683C107.92 203.63 87.052 216.364 63.1613 216.441C51.3334 210.995 41.0753 201.961 33.9424 189.78C15.2714 157.892 31.125 115.413 64.7284 96.2834C75.5084 90.1465 86.8861 86.9834 97.9849 86.5705V86.5173Z" fill="black"/>
<path d="M209.411 86.5173C198.75 93.4651 194.804 104.469 196.32 112.365C197.694 119.521 203.09 125.156 209.88 127.465C219.025 131.771 229.284 129.136 235.6 127.513C237.611 126.997 239.222 126.583 240.271 126.529C240.271 126.529 227.101 122.396 230.796 112.365C238.526 91.3743 277.591 86.5173 277.591 86.5173H209.411Z" fill="#F36600"/>
<path d="M1113.06 216.812L1132.92 123.685H1166.3L1146.45 216.812H1113.06Z" fill="black"/>
<path d="M1058.14 216.811L1085.9 86.5808L1119.28 86.5808L1091.52 216.811H1058.14Z" fill="black"/>
<path d="M978.654 218.569C969.868 218.569 963.543 215.289 959.677 208.729C955.928 202.052 955.226 193.208 957.568 182.197L970.044 123.685H1003.43L991.832 178.331C991.012 182.548 991.246 185.828 992.535 188.171C993.94 190.514 996.459 191.685 1000.09 191.685C1003.84 191.685 1006.83 190.455 1009.05 187.995C1011.39 185.535 1012.98 182.314 1013.8 178.331L1025.39 123.685H1058.78L1039.1 216.812H1005.71L1008.35 203.633H1007.29C1003.78 208.319 999.563 212.009 994.643 214.703C989.841 217.28 984.511 218.569 978.654 218.569Z" fill="black"/>
<path d="M886.594 121.928C891.748 121.928 895.966 122.689 899.245 124.212C902.525 125.618 905.102 127.258 906.977 129.132C908.968 131.006 910.315 132.705 911.018 134.227C911.838 135.633 912.248 136.336 912.248 136.336H913.654L916.289 123.685H949.674L930.346 216.811H896.961L899.07 206.62H897.664C897.664 206.62 897.254 207.264 896.434 208.553C895.614 209.724 894.267 211.071 892.393 212.594C890.518 214.117 888 215.523 884.837 216.811C881.674 217.983 877.75 218.568 873.065 218.568C865.45 218.568 859.125 216.753 854.088 213.121C849.168 209.49 845.478 204.687 843.018 198.713C840.675 192.739 839.504 186.296 839.504 179.385C839.504 172.708 840.558 166.031 842.667 159.354C844.775 152.56 847.821 146.351 851.804 140.729C855.904 134.989 860.882 130.42 866.739 127.023C872.596 123.626 879.214 121.928 886.594 121.928ZM894.677 148.46C890.226 148.46 886.36 149.866 883.08 152.677C879.917 155.371 877.457 158.768 875.7 162.868C874.06 166.968 873.24 171.068 873.24 175.168C873.24 179.736 874.353 183.719 876.579 187.116C878.922 190.396 882.553 192.036 887.473 192.036C891.924 192.036 895.731 190.689 898.894 187.995C902.174 185.183 904.634 181.728 906.274 177.628C908.031 173.528 908.909 169.487 908.909 165.504C908.909 160.935 907.738 156.953 905.395 153.556C903.17 150.159 899.597 148.46 894.677 148.46Z" fill="black"/>
<path d="M707.578 216.812L735.165 86.7861H788.053C798.479 86.7861 807.089 88.7189 813.883 92.5846C820.677 96.3331 825.714 101.253 828.994 107.344C832.274 113.436 833.914 119.937 833.914 126.848C833.914 132.588 832.742 138.328 830.4 144.068C828.174 149.69 824.777 154.845 820.208 159.53C815.757 164.216 810.252 167.964 803.692 170.776C797.132 173.47 789.576 174.817 781.025 174.817H750.276L741.315 216.812H707.578ZM784.188 116.13H762.751L756.426 145.649H782.431C788.053 145.649 792.388 143.951 795.433 140.553C798.479 137.156 800.002 133.525 800.002 129.659C800.002 126.145 798.713 123.041 796.136 120.347C793.676 117.535 789.693 116.13 784.188 116.13Z" fill="black"/>
<path d="M633.514 218.569C625.665 218.569 619.516 217.339 615.064 214.879C610.613 212.419 607.392 209.257 605.4 205.391C603.526 201.408 602.53 197.25 602.413 192.915C602.296 188.581 602.647 184.481 603.467 180.616L609.969 150.042H595.033L600.656 123.686H615.591L620.511 100.843H654.072L649.152 123.686H666.372L660.749 150.042H643.529L637.028 180.616C636.208 184.599 636.618 187.703 638.258 189.928C639.898 192.037 643.061 193.091 647.746 193.091C649.621 193.091 651.202 192.974 652.49 192.74C653.896 192.388 654.599 192.213 654.599 192.213L649.328 216.812C649.328 216.812 647.805 217.105 644.759 217.691C641.831 218.276 638.082 218.569 633.514 218.569Z" fill="black"/>
<path d="M535.667 218.568C527.115 218.568 520.087 217.456 514.581 215.23C509.076 213.004 504.683 210.31 501.403 207.147C498.24 203.867 495.897 200.646 494.375 197.483C492.969 194.203 492.032 191.45 491.563 189.225C491.212 186.999 491.036 185.886 491.036 185.886H522.84C522.84 185.886 523.191 186.648 523.894 188.171C524.714 189.576 526.237 191.04 528.462 192.563C530.688 193.969 533.968 194.672 538.302 194.672C542.402 194.672 545.213 193.969 546.736 192.563C548.376 191.04 549.196 189.518 549.196 187.995C549.196 185.301 547.088 183.543 542.871 182.724L529.341 180.264C521.141 178.741 514.64 175.695 509.837 171.127C505.152 166.441 502.809 160.643 502.809 153.731C502.809 147.874 504.507 142.544 507.904 137.742C511.301 132.939 516.104 129.132 522.313 126.32C528.638 123.392 536.194 121.928 544.979 121.928C552.593 121.928 558.919 122.982 563.956 125.091C569.11 127.082 573.21 129.6 576.256 132.646C579.301 135.692 581.527 138.737 582.933 141.783C584.455 144.829 585.451 147.406 585.92 149.514C586.388 151.506 586.623 152.501 586.623 152.501H556.049C556.049 152.501 555.698 151.974 554.995 150.92C554.409 149.749 553.179 148.636 551.305 147.581C549.548 146.41 546.853 145.824 543.222 145.824C539.591 145.824 536.897 146.469 535.139 147.757C533.499 148.929 532.679 150.393 532.679 152.15C532.679 155.196 535.432 157.187 540.938 158.124L551.656 159.881C561.73 161.521 568.934 164.86 573.269 169.897C577.603 174.934 579.77 180.556 579.77 186.765C579.77 192.505 578.071 197.776 574.674 202.579C571.277 207.382 566.299 211.247 559.739 214.176C553.179 217.104 545.155 218.568 535.667 218.568Z" fill="black"/>
<path d="M427.929 121.928C433.083 121.928 437.3 122.689 440.58 124.212C443.86 125.618 446.437 127.258 448.312 129.132C450.303 131.006 451.65 132.705 452.353 134.227C453.173 135.633 453.583 136.336 453.583 136.336H454.989L457.624 123.685H491.009L471.681 216.811H438.296L440.405 206.62H438.999C438.999 206.62 438.589 207.264 437.769 208.553C436.949 209.724 435.602 211.071 433.728 212.594C431.853 214.117 429.335 215.523 426.172 216.811C423.009 217.983 419.085 218.568 414.4 218.568C406.785 218.568 400.46 216.753 395.423 213.121C390.503 209.49 386.813 204.687 384.353 198.713C382.01 192.739 380.839 186.296 380.839 179.385C380.839 172.708 381.893 166.031 384.002 159.354C386.11 152.56 389.156 146.351 393.139 140.729C397.238 134.989 402.217 130.42 408.074 127.023C413.931 123.626 420.549 121.928 427.929 121.928ZM436.012 148.46C431.561 148.46 427.695 149.866 424.415 152.677C421.252 155.371 418.792 158.768 417.035 162.868C415.395 166.968 414.575 171.068 414.575 175.168C414.575 179.736 415.688 183.719 417.914 187.116C420.257 190.396 423.888 192.036 428.808 192.036C433.259 192.036 437.066 190.689 440.229 187.995C443.509 185.183 445.969 181.728 447.609 177.628C449.366 173.528 450.244 169.487 450.244 165.504C450.244 160.935 449.073 156.953 446.73 153.556C444.505 150.159 440.932 148.46 436.012 148.46Z" fill="black"/>
<path d="M268.987 216.812L296.574 86.7861H390.403L384.253 115.954H324.16L318.186 144.068H370.372L364.398 172.006H312.212L302.724 216.812H268.987Z" fill="black"/>
<path d="M1141.7 109.101C1145.33 112.615 1149.9 114.372 1155.41 114.372C1160.91 114.372 1165.48 112.615 1169.11 109.101C1172.74 105.469 1174.56 101.194 1174.56 96.2739C1174.56 91.1197 1172.74 86.7855 1169.11 83.2713C1165.48 79.7571 1160.91 78 1155.41 78C1149.9 78 1145.33 79.7571 1141.7 83.2713C1138.19 86.7855 1136.43 91.1197 1136.43 96.2739C1136.43 101.194 1138.19 105.469 1141.7 109.101Z" fill="#F36600"/>
</svg>
