<svg width="100" height="100" viewBox="0 0 100 100" fill="none" xmlns="http://www.w3.org/2000/svg">
<path fill-rule="evenodd" clip-rule="evenodd" d="M28.6569 27.027H63.7368L59.239 42.6712H51.8558L51.8403 42.652H47.3426L52.2463 44.3903C55.0081 55.1575 49.437 67.4933 38.999 73.4748C33.5793 76.5806 27.6979 77.5755 22.2323 76.7087C33.0253 74.0674 41.2181 64.8711 42.2786 53.6181C42.8016 50.2697 42.1789 46.711 40.3484 43.5641C36.2497 36.5178 27.8725 35.3548 20.5583 39.5462C13.244 43.7377 10.6124 52.5895 14.7111 59.6358C18.8098 66.6821 27.8617 68.1035 35.1759 63.9121C35.6082 63.6644 36.0218 63.3994 36.4165 63.1188C32.2857 70.0847 24.6637 74.7664 15.9378 74.7948C11.6177 72.7925 7.87105 69.4713 5.2658 64.9925C-1.55368 53.2688 4.23673 37.651 16.5102 30.6176C20.4475 28.3613 24.6031 27.1984 28.6569 27.0466V27.027Z" fill="black"/>
<path d="M69.3546 27.027C65.4609 29.5814 64.0195 33.6271 64.5732 36.5301C65.075 39.161 67.0457 41.233 69.5257 42.0819C72.8661 43.665 76.613 42.6962 78.9199 42.0997C79.6544 41.9098 80.2429 41.7576 80.6258 41.7376C80.6258 41.7376 75.8159 40.2184 77.1652 36.5301C79.9886 28.8127 94.2568 27.027 94.2568 27.027H69.3546Z" fill="#F36600"/>
</svg>
